<?xml version="1.0" encoding="UTF-8" standalone="no" ?>
<!DOCTYPE svg PUBLIC "-//W3C//DTD SVG 1.1//EN" "http://www.w3.org/Graphics/SVG/1.1/DTD/svg11.dtd">
<svg xmlns="http://www.w3.org/2000/svg" xmlns:xlink="http://www.w3.org/1999/xlink" version="1.1" width="1080" height="1080" viewBox="0 0 1080 1080" xml:space="preserve">
<desc>Created with Fabric.js 5.2.4</desc>
<defs>
</defs>
<g transform="matrix(1 0 0 1 540 540)" id="d2e287c3-acaa-48fc-8a7b-225937aa2c02"  >
<rect style="stroke: none; stroke-width: 1; stroke-dasharray: none; stroke-linecap: butt; stroke-dashoffset: 0; stroke-linejoin: miter; stroke-miterlimit: 4; fill: rgb(255,255,255); fill-rule: nonzero; opacity: 1; visibility: hidden;" vector-effect="non-scaling-stroke"  x="-540" y="-540" rx="0" ry="0" width="1080" height="1080" />
</g>
<g transform="matrix(1 0 0 1 540 540)" id="d12e3dcb-f494-44e5-9e44-604d59c8dfac"  >
</g>
<g transform="matrix(1 0 0 1 545 545)" id="f4a560df-0430-407b-93ad-95424f26f289"  >
<path style="stroke: #0047ab; stroke-width: 3; stroke-dasharray: none; stroke-linecap: butt; stroke-dashoffset: 0; stroke-linejoin: miter; stroke-miterlimit: 4; fill: rgb(0,0,0); fill-rule: nonzero; opacity: 1;" vector-effect="non-scaling-stroke"  transform=" translate(-256, -256)" d="M 475.606 295.503 L 434.2 207.722 C 434.30899999999997 205.097 434.40299999999996 202.472 434.40299999999996 199.816 C 434.40299999999996 89.47200000000001 344.93399999999997 0.0030000000000143245 234.57499999999996 0.0030000000000143245 C 124.21599999999995 0.0030000000000143245 34.747 89.472 34.747 199.815 C 34.747 261.878 63.028 317.331 107.419 353.98699999999997 L 107.419 424.61199999999997 C 107.419 431.503 111.52799999999999 437.73699999999997 117.872 440.42499999999995 L 283.372 510.62799999999993 C 288.66900000000004 512.8779999999999 294.747 512.3309999999999 299.54400000000004 509.15899999999993 C 304.357 505.97099999999995 307.247 500.59599999999995 307.247 494.84599999999995 L 307.247 434.98699999999997 C 307.247 425.518 314.935 417.81499999999994 324.403 417.81499999999994 L 409.16900000000004 417.81499999999994 C 418.653 417.81499999999994 426.32500000000005 410.12699999999995 426.32500000000005 400.65899999999993 L 426.32500000000005 349.05 C 426.32500000000005 342.47200000000004 430.09100000000007 336.47200000000004 435.99700000000007 333.59700000000004 L 467.57500000000005 318.26900000000006 C 476.044 314.144 479.622 304.003 475.606 295.503 z" stroke-linecap="round" />
</g>
</svg>